# xmcd
#
# Track frame offsets:
#	150
#	14370
#	28782
#	41696
#	57631
#	74146
#	88543
#	106588
#	118777
#	134817
#	149267
#	165689
#
# Disc length: 2447 seconds
#
# Revision: 0
# Processed by: cddbd v1.4PL0 Copyright (c) Steve Scherf et al.
# Submitted via: EasyCDDAExtractor 4.6.9.1
#
DISCID=b3098d0c
DTITLE=Emmylou Harris - Profile - Best Of Emmylou Harris
DYEAR=1978
DGENRE=Country
TTITLE0=One Of These Days
TTITLE1=Sweet Dreams
TTITLE2=To Daddy
TTITLE3=(You Never Can Tell) C'est Lavie
TTITLE4=Making Believe
TTITLE5=Easy From Now On
TTITLE6=Together Again
TTITLE7=If I Could Only Win Your Love
TTITLE8=Too Far Gone
TTITLE9=Two More Bottles Of Wine
TTITLE10=Boulder To Birmingham
TTITLE11=Hello Stranger
EXTD=
EXTT0=
EXTT1=
EXTT2=
EXTT3=
EXTT4=
EXTT5=
EXTT6=
EXTT7=
EXTT8=
EXTT9=
EXTT10=
EXTT11=
PLAYORDER=
